<svg xmlns="http://www.w3.org/2000/svg" viewBox="0 0 520 260"><g fill="none" stroke="#56633f" stroke-width="2.2" stroke-linecap="round" stroke-linejoin="round"><path d="M5 220c86-56 158-70 238-41 81 30 153 25 272-31M5 235c105-46 179-47 255-18 79 30 151 20 255-18"/><path d="M355 214V88M392 210V54M430 205V76M466 198V102"/><path d="M355 88c-20 39-22 75 0 126 22-51 20-87 0-126ZM392 54c-22 47-24 97 0 156 24-59 22-109 0-156ZM430 76c-20 42-22 84 0 129 22-45 20-87 0-129ZM466 102c-16 31-18 65 0 96 18-31 16-65 0-96Z"/><path d="M30 168c38-30 73-39 114-20 45 20 82 16 126-8M76 140l32-28 30 25 25-18 42 31"/></g></svg>
