<svg xmlns="http://www.w3.org/2000/svg" viewBox="0 0 420 360"><g fill="none" stroke="#56633f" stroke-width="3" stroke-linecap="round" stroke-linejoin="round"><path d="M20 330C75 250 118 184 215 118 282 72 335 55 404 45"/><path d="M82 257c-35-12-53-1-66 13 23 5 45 5 66-13Z"/><path d="M107 226c-28-26-49-22-66-13 18 15 38 24 66 13Z"/><path d="M137 197c-16-34-38-38-56-35 10 21 27 36 56 35Z"/><path d="M170 170c-6-39-27-49-46-51 5 23 17 43 46 51Z"/><path d="M205 144c4-37 24-50 43-54-1 23-10 44-43 54Z"/><path d="M241 119c9-34 31-42 50-42-5 22-17 40-50 42Z"/><path d="M282 94c15-29 37-34 55-30-9 19-24 34-55 30Z"/><path d="M323 73c18-24 39-25 55-19-11 16-27 28-55 19Z"/><ellipse cx="151" cy="225" rx="11" ry="18" transform="rotate(-32 151 225)"/><ellipse cx="200" cy="182" rx="11" ry="18" transform="rotate(-25 200 182)"/></g></svg>
