<svg xmlns="http://www.w3.org/2000/svg" viewBox="0 0 760 620"><g fill="none" stroke="#56633f" stroke-width="3" stroke-linecap="round" stroke-linejoin="round"><path d="M100 390c120-52 445-58 560 0l-38 155H138Z"/><path d="M150 420h460"/><ellipse cx="240" cy="448" rx="58" ry="19"/><ellipse cx="380" cy="458" rx="62" ry="20"/><ellipse cx="520" cy="448" rx="58" ry="19"/><path d="M340 340c-2 45 5 82 40 118 33-38 42-75 38-118"/><path d="M380 339V190"/><path d="M380 210c-42-44-92-34-114-3 26 3 44 20 49 46-45-18-78 4-84 34 28-4 51 4 68 27-42 4-61 27-60 49 29-12 55-7 79 15 17-23 36-31 62-31 28 0 49 9 66 31 24-22 50-27 79-15 1-22-18-45-60-49 17-23 40-31 68-27-6-30-39-52-84-34 5-26 23-43 49-46-22-31-72-41-114 3"/><path d="M276 284c38-18 66-21 104 0M484 284c-38-18-66-21-104 0M304 334c28-16 49-19 76-5M456 334c-28-16-49-19-76-5"/><path d="M190 400V210M170 400V230M590 400V210M610 400V230"/><path d="M190 210c0-18 16-30 16-45 0-9-6-18-16-29-10 11-16 20-16 29 0 15 16 27 16 45ZM170 230c0-16 14-26 14-39 0-8-5-15-14-24-9 9-14 16-14 24 0 13 14 23 14 39ZM590 210c0-18 16-30 16-45 0-9-6-18-16-29-10 11-16 20-16 29 0 15 16 27 16 45ZM610 230c0-16 14-26 14-39 0-8-5-15-14-24-9 9-14 16-14 24 0 13 14 23 14 39Z"/><path d="M142 410l-38-52-44 12 35 75M618 410l38-52 44 12-35 75"/><path d="M120 500h520"/></g></svg>
